<?xml version="1.0" encoding="utf-8"?>
<!-- Generator: Adobe Illustrator 23.0.3, SVG Export Plug-In . SVG Version: 6.00 Build 0)  -->
<svg version="1.1"
	 id="svg8" inkscape:version="0.92.4 (unknown)" sodipodi:docname="figure.svg" xmlns:cc="http://creativecommons.org/ns#" xmlns:dc="http://purl.org/dc/elements/1.1/" xmlns:inkscape="http://www.inkscape.org/namespaces/inkscape" xmlns:rdf="http://www.w3.org/1999/02/22-rdf-syntax-ns#" xmlns:sodipodi="http://sodipodi.sourceforge.net/DTD/sodipodi-0.dtd" xmlns:svg="http://www.w3.org/2000/svg"
	 xmlns="http://www.w3.org/2000/svg" xmlns:xlink="http://www.w3.org/1999/xlink" x="0px" y="0px" viewBox="0 0 680.3 340.2"
	 style="enable-background:new 0 0 680.3 340.2;" xml:space="preserve">
<style type="text/css">
	.st0{fill:#FFFFFF;stroke:#000000;stroke-miterlimit:10;}
	.st1{fill:#A4A3A3;stroke:#000000;stroke-miterlimit:10;}
	.st2{font-family:'MyriadPro-Regular';}
	.st3{font-size:12px;}
	.st4{fill:none;stroke:#000000;stroke-width:0.75;stroke-miterlimit:10;}
</style>
<sodipodi:namedview  bordercolor="#666666" borderopacity="1.0" id="base" inkscape:current-layer="layer1" inkscape:cx="284.27627" inkscape:cy="182.72055" inkscape:document-units="mm" inkscape:guide-bbox="true" inkscape:pageopacity="0.0" inkscape:pageshadow="2" inkscape:window-height="995" inkscape:window-maximized="1" inkscape:window-width="2520" inkscape:window-x="20" inkscape:window-y="65" inkscape:zoom="0.99437388" pagecolor="#ffffff" showborder="true" showgrid="false" showguides="true" width="200mm">
	<inkscape:grid  dotted="false" empspacing="4" id="grid815" spacingx="10" spacingy="10" type="xygrid" units="mm">
		</inkscape:grid>
</sodipodi:namedview>
<g id="layer1" transform="translate(0,-177)" inkscape:groupmode="layer" inkscape:label="Layer 1">
</g>
<ellipse transform="matrix(0.8979 -0.4402 0.4402 0.8979 -82.027 109.222)" class="st0" cx="194.4" cy="231.4" rx="90.1" ry="52.1"/>
<ellipse transform="matrix(0.4353 -0.9003 0.9003 0.4353 65.6872 561.8938)" class="st0" cx="480.7" cy="228.6" rx="71.3" ry="117.2"/>
<path class="st1" d="M275.3,191.7c-9.3-18.9-36.7-25.7-68.3-19.3c-7.9,8-12.6,17.9-12.6,28.5c0,25.9,27.7,47.1,62.8,48.7
	C275.6,230.3,283.5,208.3,275.3,191.7z"/>
<path class="st1" d="M431.7,146.8c-26.4,1.7-47.5,12.2-56.5,30.8c-6,12.5-5.8,27-0.4,41.8c8.5,5.8,19.2,9.3,30.8,9.3
	c27.7,0,50.2-19.8,50.2-44.1C455.7,168.5,446.1,154.6,431.7,146.8z"/>
<text transform="matrix(1 0 0 1 187.84 159.1028)" class="st2 st3">$(U_{ij})$</text>
<text transform="matrix(1 0 0 1 374.6484 139.3896)" class="st2 st3">$(U_{ji})$</text>
<path class="st4" d="M280.8,182.6c5-4.7,14.7-12.6,29.1-16.9c20.8-6.3,38.5-1.3,45.1,0.9"/>
<text transform="matrix(1 0 0 1 301.4268 150.6542)" class="st2 st3">$\phi_{ij}$</text>
</svg>
