<?xml version="1.0" encoding="utf-8"?>
<!-- Generator: Adobe Illustrator 23.0.3, SVG Export Plug-In . SVG Version: 6.00 Build 0)  -->
<svg version="1.1"
	 id="svg8" inkscape:version="0.92.4 (unknown)" sodipodi:docname="figure.svg" xmlns:cc="http://creativecommons.org/ns#" xmlns:dc="http://purl.org/dc/elements/1.1/" xmlns:inkscape="http://www.inkscape.org/namespaces/inkscape" xmlns:rdf="http://www.w3.org/1999/02/22-rdf-syntax-ns#" xmlns:sodipodi="http://sodipodi.sourceforge.net/DTD/sodipodi-0.dtd" xmlns:svg="http://www.w3.org/2000/svg"
	 xmlns="http://www.w3.org/2000/svg" xmlns:xlink="http://www.w3.org/1999/xlink" x="0px" y="0px" viewBox="0 0 680.3 117.1"
	 style="enable-background:new 0 0 680.3 117.1;" xml:space="preserve">
<style type="text/css">
	.st0{fill:#FFFFFF;}
	.st1{fill:none;stroke:#000000;stroke-miterlimit:10;}
	.st2{font-family:'MyriadPro-Regular';}
	.st3{font-size:12px;}
</style>
<sodipodi:namedview  bordercolor="#666666" borderopacity="1.0" id="base" inkscape:current-layer="layer1" inkscape:cx="284.27627" inkscape:cy="182.72055" inkscape:document-units="mm" inkscape:guide-bbox="true" inkscape:pageopacity="0.0" inkscape:pageshadow="2" inkscape:window-height="995" inkscape:window-maximized="1" inkscape:window-width="2520" inkscape:window-x="20" inkscape:window-y="65" inkscape:zoom="0.99437388" pagecolor="#ffffff" showborder="true" showgrid="false" showguides="true" width="200mm">
	<inkscape:grid  dotted="false" empspacing="4" id="grid815" spacingx="10" spacingy="10" type="xygrid" units="mm">
		</inkscape:grid>
</sodipodi:namedview>
<g id="layer1" transform="translate(0,-177)" inkscape:groupmode="layer" inkscape:label="Layer 1">
</g>
<g>
	<path class="st0" d="M192.2,83.8c21.6-46.6,41.3-58.1,56-59c29.5-1.7,42.1,39.1,98,53c11.5,2.9,29.2,7,50,1c31-9,47.6-34.7,53-44"
		/>
	<g>
		<path class="st1" d="M192.2,83.8c21.6-46.6,41.3-58.1,56-59c29.5-1.7,42.1,39.1,98,53c11.5,2.9,29.2,7,50,1
			c26.4-7.7,42.4-27.4,49.8-38.9"/>
		<g>
			<path d="M449.2,34.8c-0.6,3-1,6.9-0.5,9.8l-3.1-4l-4.9-1.1C443.4,38.7,446.8,36.7,449.2,34.8z"/>
		</g>
	</g>
</g>
<text transform="matrix(1 0 0 1 284.4353 24.6107)" class="st2 st3">$\gamma$</text>
<text transform="matrix(1 0 0 1 199.552 91.9325)" class="st2 st3">$q$</text>
<text transform="matrix(1 0 0 1 389.1599 92.4471)" class="st2 st3">$p = (\rho_s)(q)</text>
<text transform="matrix(1 0 0 1 459.5222 40.7352)" class="st2 st3">$\gamma’(s)$</text>
<circle cx="192.2" cy="83.8" r="4.1"/>
<circle cx="391.2" cy="79.7" r="4.1"/>
</svg>
