<?xml version="1.0" encoding="utf-8"?>
<!-- Generator: Adobe Illustrator 23.0.3, SVG Export Plug-In . SVG Version: 6.00 Build 0)  -->
<svg version="1.1"
	 id="svg8" inkscape:version="0.92.4 (unknown)" sodipodi:docname="figure.svg" xmlns:cc="http://creativecommons.org/ns#" xmlns:dc="http://purl.org/dc/elements/1.1/" xmlns:inkscape="http://www.inkscape.org/namespaces/inkscape" xmlns:rdf="http://www.w3.org/1999/02/22-rdf-syntax-ns#" xmlns:sodipodi="http://sodipodi.sourceforge.net/DTD/sodipodi-0.dtd" xmlns:svg="http://www.w3.org/2000/svg"
	 xmlns="http://www.w3.org/2000/svg" xmlns:xlink="http://www.w3.org/1999/xlink" x="0px" y="0px" viewBox="0 0 680.3 340.2"
	 style="enable-background:new 0 0 680.3 340.2;" xml:space="preserve">
<style type="text/css">
	.st0{fill:#FFFFFF;stroke:#000000;stroke-miterlimit:10;}
	.st1{fill:#010202;}
	.st2{font-family:'MyriadPro-Regular';}
	.st3{font-size:12px;}
	.st4{fill:none;stroke:#000000;stroke-width:0.5;stroke-miterlimit:10;}
	.st5{font-size:4.9098px;}
</style>
<sodipodi:namedview  bordercolor="#666666" borderopacity="1.0" id="base" inkscape:current-layer="layer1" inkscape:cx="284.27627" inkscape:cy="182.72055" inkscape:document-units="mm" inkscape:guide-bbox="true" inkscape:pageopacity="0.0" inkscape:pageshadow="2" inkscape:window-height="995" inkscape:window-maximized="1" inkscape:window-width="2520" inkscape:window-x="20" inkscape:window-y="65" inkscape:zoom="0.99437388" pagecolor="#ffffff" showborder="true" showgrid="false" showguides="true" width="200mm">
	<inkscape:grid  dotted="false" empspacing="4" id="grid815" spacingx="10" spacingy="10" type="xygrid" units="mm">
		</inkscape:grid>
</sodipodi:namedview>
<g id="layer1" transform="translate(0,-177)" inkscape:groupmode="layer" inkscape:label="Layer 1">
</g>
<path class="st0" d="M350.7,175.9c-2.1,3.7-6,6.2-10.5,6.2c-6.6,0-12-5.4-12-12s5.4-12,12-12c4.5,0,8.4,2.5,10.5,6.1h104.9
	c-3.1-61-53.5-109.6-115.4-109.6c-63.8,0-115.5,51.7-115.5,115.5s51.7,115.5,115.5,115.5c61.8,0,112.3-48.6,115.4-109.6H350.7z"/>
<circle class="st1" cx="340.4" cy="170.1" r="2.3"/>
<text transform="matrix(1 0 0 1 342.7342 197.1179)" class="st2 st3">$0$</text>
<text transform="matrix(1 0 0 1 335.4902 146.5903)" class="st2 st3">$C_\epsilon (0)$</text>
<line class="st4" x1="559.9" y1="170.1" x2="340.4" y2="170.1"/>
<text transform="matrix(1 0 0 1 524.1162 190.019)" class="st2 st3">$\R^+$</text>
<text transform="matrix(1 0 0 1 458.2921 164.0832)" class="st2 st5">$\delta$</text>
<text transform="matrix(1 0 0 1 461.2698 187.2994)" class="st2 st5">$-\delta$</text>
<text transform="matrix(1 0 0 1 271.022 164.0832)" class="st2 st3">$-1$</text>
<circle class="st1" cx="281.3" cy="170.1" r="2.3"/>
</svg>
