<?xml version="1.0" encoding="utf-8"?>
<!-- Generator: Adobe Illustrator 23.0.3, SVG Export Plug-In . SVG Version: 6.00 Build 0)  -->
<svg version="1.1"
	 id="svg8" inkscape:version="0.92.4 (unknown)" sodipodi:docname="figure.svg" xmlns:cc="http://creativecommons.org/ns#" xmlns:dc="http://purl.org/dc/elements/1.1/" xmlns:inkscape="http://www.inkscape.org/namespaces/inkscape" xmlns:rdf="http://www.w3.org/1999/02/22-rdf-syntax-ns#" xmlns:sodipodi="http://sodipodi.sourceforge.net/DTD/sodipodi-0.dtd" xmlns:svg="http://www.w3.org/2000/svg"
	 xmlns="http://www.w3.org/2000/svg" xmlns:xlink="http://www.w3.org/1999/xlink" x="0px" y="0px" viewBox="0 0 680.3 340.2"
	 style="enable-background:new 0 0 680.3 340.2;" xml:space="preserve">
<style type="text/css">
	.st0{fill:#010202;fill-opacity:0.23;stroke:#000000;stroke-width:0.75;stroke-miterlimit:10;}
	.st1{fill:#010202;}
	.st2{font-family:'MyriadPro-Regular';}
	.st3{font-size:12px;}
	.st4{fill:none;stroke:#000000;stroke-linecap:round;stroke-miterlimit:10;}
</style>
<circle class="st0" cx="93" cy="293.2" r="39.6"/>
<sodipodi:namedview  bordercolor="#666666" borderopacity="1.0" id="base" inkscape:current-layer="layer1" inkscape:cx="284.27627" inkscape:cy="182.72055" inkscape:document-units="mm" inkscape:guide-bbox="true" inkscape:pageopacity="0.0" inkscape:pageshadow="2" inkscape:window-height="995" inkscape:window-maximized="1" inkscape:window-width="2520" inkscape:window-x="20" inkscape:window-y="65" inkscape:zoom="0.99437388" pagecolor="#ffffff" showborder="true" showgrid="false" showguides="true" width="200mm">
	<inkscape:grid  dotted="false" empspacing="4" id="grid815" spacingx="10" spacingy="10" type="xygrid" units="mm">
		</inkscape:grid>
</sodipodi:namedview>
<g id="layer1" transform="translate(0,-177)" inkscape:groupmode="layer" inkscape:label="Layer 1">
</g>
<sodipodi:namedview  bordercolor="#666666" borderopacity="1.0" id="base" inkscape:current-layer="layer1" inkscape:cx="284.27627" inkscape:cy="182.72055" inkscape:document-units="mm" inkscape:guide-bbox="true" inkscape:pageopacity="0.0" inkscape:pageshadow="2" inkscape:window-height="995" inkscape:window-maximized="1" inkscape:window-width="2520" inkscape:window-x="20" inkscape:window-y="65" inkscape:zoom="0.99437388" pagecolor="#ffffff" showborder="true" showgrid="false" showguides="true" width="200mm">
	<inkscape:grid  dotted="false" empspacing="4" id="grid815" spacingx="10" spacingy="10" type="xygrid" units="mm">
		</inkscape:grid>
</sodipodi:namedview>
<g id="layer1_1_" transform="translate(0,-177)" inkscape:groupmode="layer" inkscape:label="Layer 1">
</g>
<circle class="st1" cx="93" cy="293.2" r="2.6"/>
<circle class="st1" cx="569.3" cy="58.1" r="2.6"/>
<text transform="matrix(1 0 0 1 569.2784 73.4462)" class="st2 st3">$b$</text>
<text transform="matrix(1 0 0 1 77.1045 281.4189)" class="st2 st3">$a$</text>
<circle class="st0" cx="149.3" cy="286.4" r="39.6"/>
<circle class="st0" cx="214" cy="271.3" r="39.6"/>
<circle class="st0" cx="264.3" cy="246.8" r="39.6"/>
<circle class="st0" cx="312.3" cy="207.2" r="58.8"/>
<circle class="st0" cx="373.7" cy="149.6" r="56.6"/>
<circle class="st0" cx="428.5" cy="96.6" r="43.2"/>
<circle class="st0" cx="492.7" cy="67.2" r="45.8"/>
<circle class="st0" cx="566.7" cy="55.5" r="39.6"/>
<text transform="matrix(1 0 0 1 75.5094 246.7779)" class="st2 st3">$D_1$</text>
<text transform="matrix(1 0 0 1 128.9787 240.5886)" class="st2 st3">$D_2$</text>
<text transform="matrix(1 0 0 1 184.8784 224.6121)" class="st2 st3">$D_3$</text>
<text transform="matrix(1 0 0 1 221.7402 203.1431)" class="st2 st3">$\dots$</text>
<path class="st4" d="M92.6,293.2c46.1-2.8,109.4-14.2,165.2-56.5c52.8-40,60-78.3,106.9-117.4c36.5-30.5,97.7-62,204.7-61.3"/>
<path class="st4" d="M92.6,293.3c50.6,4,121.5,0.9,183.3-40.6c49-32.9,58.7-67.4,109.1-110.6c35.2-30.2,92.1-66.2,184.3-83.9"/>
<circle class="st1" cx="121" cy="290.1" r="2.6"/>
<circle class="st1" cx="127.8" cy="294.6" r="2.6"/>
<circle class="st1" cx="180.6" cy="276.6" r="2.6"/>
<circle class="st1" cx="183.7" cy="289.6" r="2.6"/>
<circle class="st1" cx="237.1" cy="251" r="2.6"/>
<circle class="st1" cx="244.8" cy="269.8" r="2.6"/>
<circle class="st1" cx="273.1" cy="224.6" r="2.6"/>
<circle class="st1" cx="289.2" cy="243.2" r="2.6"/>
<circle class="st1" cx="326.1" cy="160.8" r="2.6"/>
<circle class="st1" cx="346.4" cy="181.3" r="2.6"/>
<circle class="st1" cx="390.5" cy="100.7" r="2.6"/>
<circle class="st1" cx="408.9" cy="123.3" r="2.6"/>
<circle class="st1" cx="454.9" cy="72.4" r="2.6"/>
<circle class="st1" cx="463.5" cy="91.5" r="2.6"/>
<circle class="st1" cx="532.9" cy="58.9" r="2.6"/>
<circle class="st1" cx="534.1" cy="66.1" r="2.6"/>
<text transform="matrix(1 0 0 1 116.209 279.191)" class="st2 st3">$z_1$</text>
<text transform="matrix(1 0 0 1 125.6973 307.3408)" class="st2 st3">$w_1$</text>
<text transform="matrix(1 0 0 1 181.1276 304.3049)" class="st2 st3">$w_2$</text>
<text transform="matrix(1 0 0 1 175.7951 267.2094)" class="st2 st3">$z_2$</text>
<text transform="matrix(1 0 0 1 227.791 240.5891)" class="st2 st3">$z_3$</text>
<text transform="matrix(1 0 0 1 239.7175 281.4189)" class="st2 st3">$w_3$</text>
</svg>
