<?xml version="1.0" encoding="utf-8"?>
<!-- Generator: Adobe Illustrator 23.0.3, SVG Export Plug-In . SVG Version: 6.00 Build 0)  -->
<svg version="1.1"
	 id="svg8" inkscape:version="0.92.4 (unknown)" sodipodi:docname="figure.svg" xmlns:cc="http://creativecommons.org/ns#" xmlns:dc="http://purl.org/dc/elements/1.1/" xmlns:inkscape="http://www.inkscape.org/namespaces/inkscape" xmlns:rdf="http://www.w3.org/1999/02/22-rdf-syntax-ns#" xmlns:sodipodi="http://sodipodi.sourceforge.net/DTD/sodipodi-0.dtd" xmlns:svg="http://www.w3.org/2000/svg"
	 xmlns="http://www.w3.org/2000/svg" xmlns:xlink="http://www.w3.org/1999/xlink" x="0px" y="0px" viewBox="0 0 680.3 340.2"
	 style="enable-background:new 0 0 680.3 340.2;" xml:space="preserve">
<style type="text/css">
	.st0{fill:#FFFFFF;stroke:#000000;stroke-miterlimit:10;}
	.st1{stroke:#000000;stroke-miterlimit:10;}
	.st2{font-family:'MyriadPro-Regular';}
	.st3{font-size:12px;}
</style>
<sodipodi:namedview  bordercolor="#666666" borderopacity="1.0" id="base" inkscape:current-layer="layer1" inkscape:cx="284.27627" inkscape:cy="182.72055" inkscape:document-units="mm" inkscape:guide-bbox="true" inkscape:pageopacity="0.0" inkscape:pageshadow="2" inkscape:window-height="995" inkscape:window-maximized="1" inkscape:window-width="2520" inkscape:window-x="20" inkscape:window-y="65" inkscape:zoom="0.99437388" pagecolor="#ffffff" showborder="true" showgrid="false" showguides="true" width="200mm">
	<inkscape:grid  dotted="false" empspacing="4" id="grid815" spacingx="10" spacingy="10" type="xygrid" units="mm">
		</inkscape:grid>
</sodipodi:namedview>
<g id="layer1" transform="translate(0,-177)" inkscape:groupmode="layer" inkscape:label="Layer 1">
</g>
<path class="st0" d="M391.3,258.4c-7.4,8.2-19.7,10.5-29.7,4.8c-11.5-6.6-15.5-21.2-8.9-32.7c6.6-11.5,21.2-15.5,32.7-8.9
	c10,5.7,14.3,17.5,11,28l31.2,17.8c14.2-19.8,22.5-44,22.5-70.3c0-66.7-54.1-120.8-120.8-120.8s-120.8,54.1-120.8,120.8
	s54.1,120.8,120.8,120.8c36.8,0,69.8-16.5,92-42.5L391.3,258.4z"/>
<circle class="st1" cx="329.2" cy="197.2" r="2.6"/>
<circle class="st1" cx="373.7" cy="243.5" r="2.6"/>
<text transform="matrix(1 0 0 1 331.8545 189.7842)" class="st2 st3">$a$</text>
<text transform="matrix(1 0 0 1 364.1822 238.6723)" class="st2 st3">$z$</text>
<text transform="matrix(1 0 0 1 360.2579 275.9537)" class="st2 st3">$\epsilon$</text>
<text transform="matrix(1 0 0 1 427.9523 279.8955)" class="st2 st3">$\delta$</text>
<text transform="matrix(1 0 0 1 413.236 97.3969)" class="st2 st3">$\gamma_{\epsilon, \delta}$</text>
</svg>
