<?xml version="1.0" encoding="utf-8"?>
<!-- Generator: Adobe Illustrator 23.0.3, SVG Export Plug-In . SVG Version: 6.00 Build 0)  -->
<svg version="1.1"
	 id="svg8" inkscape:version="0.92.4 (unknown)" sodipodi:docname="figure.svg" xmlns:cc="http://creativecommons.org/ns#" xmlns:dc="http://purl.org/dc/elements/1.1/" xmlns:inkscape="http://www.inkscape.org/namespaces/inkscape" xmlns:rdf="http://www.w3.org/1999/02/22-rdf-syntax-ns#" xmlns:sodipodi="http://sodipodi.sourceforge.net/DTD/sodipodi-0.dtd" xmlns:svg="http://www.w3.org/2000/svg"
	 xmlns="http://www.w3.org/2000/svg" xmlns:xlink="http://www.w3.org/1999/xlink" x="0px" y="0px" viewBox="0 0 680.3 340.2"
	 style="enable-background:new 0 0 680.3 340.2;" xml:space="preserve">
<style type="text/css">
	.st0{font-family:'MyriadPro-Regular';}
	.st1{font-size:12px;}
	.st2{fill:#FFFFFF;stroke:#941914;stroke-miterlimit:10;}
	.st3{fill:#FFFFFF;stroke:#A98F13;stroke-miterlimit:10;}
	.st4{fill:#E52421;}
	.st5{fill:#9E8616;}
	.st6{fill:none;}
	.st7{fill:none;stroke:#000000;stroke-width:0.5;stroke-miterlimit:10;}
	.st8{fill:#010202;}
	.st9{fill:none;stroke:#0C7533;stroke-width:0.5;stroke-miterlimit:10;}
	.st10{fill:none;stroke:#030F14;stroke-miterlimit:10;}
	.st11{fill:#030F14;}
	.st12{fill:#058036;}
</style>
<sodipodi:namedview  bordercolor="#666666" borderopacity="1.0" id="base" inkscape:current-layer="layer1" inkscape:cx="284.27627" inkscape:cy="182.72055" inkscape:document-units="mm" inkscape:guide-bbox="true" inkscape:pageopacity="0.0" inkscape:pageshadow="2" inkscape:window-height="995" inkscape:window-maximized="1" inkscape:window-width="2520" inkscape:window-x="20" inkscape:window-y="65" inkscape:zoom="0.99437388" pagecolor="#ffffff" showborder="true" showgrid="false" showguides="true" width="200mm">
	<inkscape:grid  dotted="false" empspacing="4" id="grid815" spacingx="10" spacingy="10" type="xygrid" units="mm">
		</inkscape:grid>
</sodipodi:namedview>
<g id="layer1" transform="translate(0,-177)" inkscape:groupmode="layer" inkscape:label="Layer 1">
</g>
<text transform="matrix(1 0 0 1 140.2816 52.664)" class="st0 st1">$\R^{n+1}$</text>
<rect x="225" y="69.6" class="st2" width="124" height="202.4"/>
<rect x="278" y="108.6" class="st3" width="124" height="202.4"/>
<text transform="matrix(1 0 0 1 241 50)" class="st4 st0 st1">$H$</text>
<text transform="matrix(1 0 0 1 369 93)" class="st5 st0 st1">$p_0 + H</text>
<line class="st6" x1="145.3" y1="108.6" x2="225" y2="152.2"/>
<line class="st6" x1="63.4" y1="135.5" x2="143.1" y2="179"/>
<line class="st6" x1="266.3" y1="170.8" x2="318.9" y2="196.1"/>
<text transform="matrix(1 0 0 1 244.2087 185.11)" class="st0 st1">$0$</text>
<line class="st7" x1="115.8" y1="261.7" x2="484.3" y2="98.3"/>
<circle class="st8" cx="320.5" cy="170.8" r="3.3"/>
<line class="st9" x1="143.6" y1="156.1" x2="423.2" y2="251.7"/>
<circle class="st8" cx="357.1" cy="229.1" r="3.3"/>
<circle class="st8" cx="262.4" cy="196.7" r="3.3"/>
<line class="st7" x1="254.6" y1="308.2" x2="270.2" y2="71.1"/>
<g>
	<g>
		<line class="st10" x1="261.9" y1="196.9" x2="372.1" y2="234.2"/>
		<g>
			<path class="st11" d="M377.8,236.2c-3,0.1-6.9,0.7-9.6,1.8l3.2-4l-0.1-5.1C372.7,231.4,375.5,234.3,377.8,236.2z"/>
		</g>
	</g>
</g>
<text transform="matrix(1 0 0 1 367.4013 221.4082)" class="st0 st1">$v$</text>
<text transform="matrix(1 0 0 1 410.3413 240.0456)" class="st12 st0 st1">$[v]$</text>
</svg>
