<?xml version="1.0" encoding="utf-8"?>
<!-- Generator: Adobe Illustrator 23.0.3, SVG Export Plug-In . SVG Version: 6.00 Build 0)  -->
<svg version="1.1"
	 id="svg8" inkscape:version="0.92.4 (unknown)" sodipodi:docname="figure.svg" xmlns:cc="http://creativecommons.org/ns#" xmlns:dc="http://purl.org/dc/elements/1.1/" xmlns:inkscape="http://www.inkscape.org/namespaces/inkscape" xmlns:rdf="http://www.w3.org/1999/02/22-rdf-syntax-ns#" xmlns:sodipodi="http://sodipodi.sourceforge.net/DTD/sodipodi-0.dtd" xmlns:svg="http://www.w3.org/2000/svg"
	 xmlns="http://www.w3.org/2000/svg" xmlns:xlink="http://www.w3.org/1999/xlink" x="0px" y="0px" viewBox="0 0 680.3 340.2"
	 style="enable-background:new 0 0 680.3 340.2;" xml:space="preserve">
<style type="text/css">
	.st0{fill:#FFFFFF;stroke:#000000;stroke-miterlimit:10;}
	.st1{fill:none;stroke:#000000;stroke-miterlimit:10;}
	.st2{font-family:'MyriadPro-Regular';}
	.st3{font-size:12px;}
</style>
<sodipodi:namedview  bordercolor="#666666" borderopacity="1.0" id="base" inkscape:current-layer="layer1" inkscape:cx="284.27627" inkscape:cy="182.72055" inkscape:document-units="mm" inkscape:guide-bbox="true" inkscape:pageopacity="0.0" inkscape:pageshadow="2" inkscape:window-height="995" inkscape:window-maximized="1" inkscape:window-width="2520" inkscape:window-x="20" inkscape:window-y="65" inkscape:zoom="0.99437388" pagecolor="#ffffff" showborder="true" showgrid="false" showguides="true" width="200mm">
	<inkscape:grid  dotted="false" empspacing="4" id="grid815" spacingx="10" spacingy="10" type="xygrid" units="mm">
		</inkscape:grid>
</sodipodi:namedview>
<g id="layer1" transform="translate(0,-177)" inkscape:groupmode="layer" inkscape:label="Layer 1">
</g>
<path class="st0" d="M324.5,67.5c-39.7,6.1-48.2,11.1-51.8,13.4c-49.4,32-35.7,111.6-32.4,130.6c6.9,39.8,14.5,84.3,56.1,101.8
	c45.9,19.2,112.1-3.2,129.5-38.4c19.8-39.9-35.6-70.7-19.4-124.8c14.8-49.3,72.6-63.1,64.8-80.7C461.2,46.7,360.2,62.1,324.5,67.5z"
	/>
<path class="st0" d="M305.1,267.2c2.2,3.3,8.2,11.1,19.4,15.4c13.2,5,30.8,4.2,43.2-5.8c12.7-10.2,12.9-24.4,13-26.9"/>
<path class="st0" d="M315.1,276.7c7.1-5.7,22.8-16.2,42.3-12.8c6,1,11.1,3.2,15.4,5.5"/>
<path class="st0" d="M299.9,166.7c6.3,1.7,21.5,5,37.6,0c18.9-5.9,34.9-22,34.8-43.5c-0.2-22-17.3-37.7-20.4-40.5"/>
<path class="st0" d="M321.2,168.3c-0.1-12.3,2.2-37.3,25.3-50.5c7-4,14.6-6.1,21.6-7.3"/>
<line class="st1" x1="263.7" y1="180.2" x2="269.1" y2="236.6"/>
<line class="st1" x1="280.5" y1="180.7" x2="286.4" y2="235.8"/>
<line class="st1" x1="296.9" y1="181.1" x2="299.9" y2="236.2"/>
<line class="st1" x1="307.9" y1="183.6" x2="312.1" y2="229.1"/>
<line class="st1" x1="263.7" y1="180.2" x2="307.9" y2="183.6"/>
<line class="st1" x1="269.1" y1="236.6" x2="312.1" y2="229.1"/>
<line class="st1" x1="267.3" y1="217.8" x2="312.9" y2="216"/>
<line class="st1" x1="266.4" y1="197.1" x2="313.3" y2="197.9"/>
<g>
	<g>
		<path class="st1" d="M331,211.4c5.7-4.5,11.9-8.9,18.5-13c51.5-32.1,107.3-34.6,145.1-31.7"/>
		<g>
			<path d="M500.6,167.2c-2.9,0.8-6.6,2.4-8.9,4.1l2.1-4.6l-1.4-4.9C494.5,163.9,497.9,165.9,500.6,167.2z"/>
		</g>
	</g>
</g>
<text transform="matrix(1 0 0 1 512.0579 168.2789)" class="st2 st3">$\mathcal U \subset \mathbb{R}^2$</text>
</svg>
