<?xml version="1.0" encoding="utf-8"?>
<!-- Generator: Adobe Illustrator 23.0.3, SVG Export Plug-In . SVG Version: 6.00 Build 0)  -->
<svg version="1.1"
	 id="svg8" inkscape:version="0.92.4 (unknown)" sodipodi:docname="figure.svg" xmlns:cc="http://creativecommons.org/ns#" xmlns:dc="http://purl.org/dc/elements/1.1/" xmlns:inkscape="http://www.inkscape.org/namespaces/inkscape" xmlns:rdf="http://www.w3.org/1999/02/22-rdf-syntax-ns#" xmlns:sodipodi="http://sodipodi.sourceforge.net/DTD/sodipodi-0.dtd" xmlns:svg="http://www.w3.org/2000/svg"
	 xmlns="http://www.w3.org/2000/svg" xmlns:xlink="http://www.w3.org/1999/xlink" x="0px" y="0px" viewBox="0 0 680.3 340.2"
	 style="enable-background:new 0 0 680.3 340.2;" xml:space="preserve">
<style type="text/css">
	.st0{fill:none;stroke:#000000;stroke-miterlimit:10;}
	.st1{fill:none;stroke:#C91517;stroke-miterlimit:10;}
	.st2{fill:#E52421;}
	.st3{font-family:'MyriadPro-Regular';}
	.st4{font-size:12px;}
	.st5{fill:none;stroke:#5CB130;stroke-miterlimit:10;}
	.st6{fill:#2E509F;}
</style>
<sodipodi:namedview  bordercolor="#666666" borderopacity="1.0" id="base" inkscape:current-layer="layer1" inkscape:cx="284.27627" inkscape:cy="182.72055" inkscape:document-units="mm" inkscape:guide-bbox="true" inkscape:pageopacity="0.0" inkscape:pageshadow="2" inkscape:window-height="995" inkscape:window-maximized="1" inkscape:window-width="2520" inkscape:window-x="20" inkscape:window-y="65" inkscape:zoom="0.99437388" pagecolor="#ffffff" showborder="true" showgrid="false" showguides="true" width="200mm">
	<inkscape:grid  dotted="false" empspacing="4" id="grid815" spacingx="10" spacingy="10" type="xygrid" units="mm">
		</inkscape:grid>
</sodipodi:namedview>
<g id="layer1" transform="translate(0,-177)" inkscape:groupmode="layer" inkscape:label="Layer 1">
</g>
<line class="st0" x1="178.8" y1="90.9" x2="364" y2="277.1"/>
<line class="st0" x1="172.5" y1="105.4" x2="502.7" y2="212.6"/>
<line class="st0" x1="392.6" y1="61.8" x2="166.7" y2="220.4"/>
<line class="st0" x1="373.7" y1="55" x2="268.5" y2="266"/>
<line class="st1" x1="96" y1="134.9" x2="410.1" y2="75.4"/>
<text transform="matrix(1 0 0 1 108.1125 119.8482)" class="st2 st3 st4">$H_\infty$</text>
<line class="st5" x1="312.3" y1="277.7" x2="257.2" y2="37.2"/>
<line class="st5" x1="426.9" y1="144.8" x2="207.7" y2="166"/>
<circle class="st6" cx="272" cy="101.6" r="3.8"/>
<circle class="st6" cx="281.4" cy="139.9" r="3.8"/>
<circle class="st6" cx="285.1" cy="159" r="3.8"/>
<circle class="st6" cx="296.8" cy="209.2" r="3.8"/>
<text transform="matrix(1 0 0 1 277.565 95.5849)" class="st3 st4">$P_1$</text>
<text transform="matrix(1 0 0 1 291.4102 141.0919)" class="st3 st4">$P_2$</text>
<text transform="matrix(1 0 0 1 292.9608 170.0789)" class="st3 st4">$P_3$</text>
<text transform="matrix(1 0 0 1 303.0104 211.5432)" class="st3 st4">$P_4$</text>
<text transform="matrix(1 0 0 1 418.7625 252.4369)" class="st3 st4">$(P_1, P_3, P_2, P_4) = -1$</text>
</svg>
